<svg id="Layer_35" enable-background="new 0 0 64 64" height="512" viewBox="0 0 64 64" width="512" xmlns="http://www.w3.org/2000/svg"><path d="m11 33 2 3 2-3-1-9h-2z" fill="#f0bc5e"/><path d="m14 2h48v8h-48z" fill="#f0bc5e"/><path d="m17 5h2v2h-2z"/><path d="m21 5h2v2h-2z"/><path d="m25 5h2v2h-2z"/><path d="m52 59h-24c-1.654 0-3-1.346-3-3v-18c0-1.654 1.346-3 3-3h24c1.654 0 3 1.346 3 3v18c0 1.654-1.346 3-3 3z" fill="#f0bc5e"/><path d="m48.064 22h10.873v2h-10.873z" transform="matrix(.336 -.942 .942 .336 13.845 65.646)"/><path d="m45 23.167h2v7.667h-2z" transform="matrix(.515 -.858 .858 .515 -.819 52.554)"/><path d="m13 1v10c-3.86 0-7 3.14-7 7 0 2.237 1.058 4.226 2.696 5.509-4.456 1.406-7.696 5.577-7.696 10.491v7c0 2.206 1.794 4 4 4h1v14c0 2.206 1.794 4 4 4 1.2 0 2.266-.542 3-1.382.734.84 1.8 1.382 3 1.382 2.206 0 4-1.794 4-4v-18h5v-2h-5v-4.736c0-1.703.854-3.272 2.284-4.198l13.191-8.535c.488-.315.871-.745 1.133-1.239l2.345 2.814 1.536-1.28-3.612-4.334c-.377-1.43-1.669-2.492-3.215-2.492-.618 0-1.223.171-1.749.495l-10.99 6.763c-.789.486-1.695.742-2.621.742h-.412c1.3-1.272 2.11-3.042 2.11-5 0-3.165-2.112-5.842-5-6.705v-8.295h46v36h-6v2h8v-40zm5.302 24c1.296 0 2.564-.359 3.668-1.039l10.99-6.763c.211-.13.454-.198.702-.198.737 0 1.338.601 1.338 1.338v.39c0 .456-.229.876-.611 1.124l-13.191 8.536c-2.003 1.295-3.198 3.492-3.198 5.876v24.736c0 1.103-.897 2-2 2s-2-.897-2-2v-18h-2v18c0 1.103-.897 2-2 2s-2-.897-2-2v-27h-2v11h-1c-1.103 0-2-.897-2-2v-7c0-4.962 4.038-9 9-9zm-.302-7c0 2.757-2.243 5-5 5s-5-2.243-5-5 2.243-5 5-5 5 2.243 5 5z"/><g fill="#f0bc5e"><path d="m56 19c-1.654 0-3-1.346-3-3s1.346-3 3-3 3 1.346 3 3-1.346 3-3 3z"/><path d="m51 33c-1.654 0-3-1.346-3-3s1.346-3 3-3 3 1.346 3 3-1.346 3-3 3z"/><path d="m41 27c-1.654 0-3-1.346-3-3s1.346-3 3-3 3 1.346 3 3-1.346 3-3 3z"/></g><path d="m51 55h-22v-12h6v10h10v-14h6zm-4-2h2v-12h-2zm-16 0h2v-8h-2z"/><path d="m43 54h-2v-7h-2v7h-2v-9h6z"/><path d="m57 35h2v2h-2z"/><path d="m57 31h2v2h-2z"/><path d="m57 27h2v2h-2z"/></svg>