<svg id="Layer_1" enable-background="new 0 0 512 512" height="512" viewBox="0 0 512 512" width="512" xmlns="http://www.w3.org/2000/svg"><g><path d="m324.9 186.6v96.23l-44.52-12.92-24.38-7.08-24.38 7.08-44.52 12.92v-96.23z" fill="#ff4656"/><path d="m324.9 186.6v96.23l-22.81-6.62-21.71-6.3v-83.31z" fill="#14bb87"/><path d="m324.9 186.6v96.23l-22.81-6.62v-89.61z" fill="#13a279"/><path d="m280.38 186.6v83.31l-24.38-7.08-24.38 7.08v-83.31z" fill="#e7f3f7"/><g><path d="m358.803 110.292c0 56.674-46.117 102.781-102.803 102.781-3.299 0-6.571-.158-9.786-.466-52.119-4.939-93.017-48.94-93.017-102.315 0-53.385 40.898-97.386 93.017-102.324 3.216-.308 6.487-.466 9.786-.466 56.686-.001 102.803 46.106 102.803 102.79z" fill="#fbdf63"/><path d="m358.803 110.292c0 56.674-46.117 102.781-102.803 102.781-3.299 0-6.571-.158-9.786-.466 52.119-4.939 93.017-48.94 93.017-102.315 0-53.385-40.898-97.386-93.017-102.324 3.216-.308 6.487-.466 9.786-.466 56.686-.001 102.803 46.106 102.803 102.79z" fill="#f9d11f"/></g><g><g><path d="m120.51 274.14c0 8.35-6.77 15.12-15.12 15.12h-77.12c-8.07 0-15.06-4.6-18.5-11.33-.8-1.56-1.41-3.24-1.78-5-.33-1.43-.49-2.92-.49-4.44 0-11.46 9.3-20.76 20.77-20.76 2.6 0 5.07.5 7.37 1.37 3.92-12.62 15.68-21.79 29.59-21.79h.4c2.33.03 4.6.32 6.78.85 13.64 3.22 23.79 15.49 23.79 30.12 0 1.38-.1 2.74-.28 4.06 2.6-2.07 5.88-3.33 9.47-3.33 8.35 0 15.12 6.77 15.12 15.13z" fill="#e7f3f7"/><path d="m120.51 274.14c0 8.35-6.77 15.12-15.12 15.12h-77.12c-8.07 0-15.06-4.6-18.5-11.33-.8-1.56-1.41-3.24-1.78-5h46.54c14.34 0 25.96-11.63 25.96-25.95 0-7.41-3.1-14.09-8.08-18.82 13.64 3.22 23.79 15.49 23.79 30.12 0 1.38-.1 2.74-.28 4.06 2.6-2.07 5.88-3.33 9.47-3.33 8.35 0 15.12 6.77 15.12 15.13z" fill="#cbe6ef"/></g><g><path d="m504.5 229.064c0 8.35-6.77 15.12-15.12 15.12h-77.12c-8.07 0-15.06-4.6-18.5-11.33-.8-1.56-1.41-3.24-1.78-5-.33-1.43-.49-2.92-.49-4.44 0-11.46 9.3-20.76 20.77-20.76 2.6 0 5.07.5 7.37 1.37 3.92-12.62 15.68-21.79 29.59-21.79h.4c2.33.03 4.6.32 6.78.85 13.64 3.22 23.79 15.49 23.79 30.12 0 1.38-.1 2.74-.28 4.06 2.6-2.07 5.88-3.33 9.47-3.33 8.35 0 15.12 6.77 15.12 15.13z" fill="#e7f3f7"/><path d="m504.5 229.064c0 8.35-6.77 15.12-15.12 15.12h-77.12c-8.07 0-15.06-4.6-18.5-11.33-.8-1.56-1.41-3.24-1.78-5h46.54c14.34 0 25.96-11.63 25.96-25.95 0-7.41-3.1-14.09-8.08-18.82 13.64 3.22 23.79 15.49 23.79 30.12 0 1.38-.1 2.74-.28 4.06 2.6-2.07 5.88-3.33 9.47-3.33 8.35 0 15.12 6.77 15.12 15.13z" fill="#cbe6ef"/></g><path d="m324.9 110.3c0 29.47-18.5 54.62-44.52 64.46-7.58 2.87-15.8 4.44-24.38 4.44s-16.8-1.57-24.38-4.44c-26.02-9.84-44.52-34.99-44.52-64.46s18.5-54.61 44.52-64.46c7.58-2.87 15.8-4.44 24.38-4.44s16.8 1.57 24.38 4.44c26.02 9.85 44.52 34.99 44.52 64.46z" fill="#fff"/><path d="m231.62 45.84v128.92c-26.02-9.84-44.52-34.99-44.52-64.46s18.5-54.61 44.52-64.46z" fill="#ff4656"/><path d="m324.9 110.3c0 29.47-18.5 54.62-44.52 64.46v-128.92c26.02 9.85 44.52 34.99 44.52 64.46z" fill="#14bb87"/><path d="m324.9 110.3c0 29.47-18.5 54.62-44.52 64.46v-10.92c15.57-12.63 25.52-31.92 25.52-53.54 0-21.61-9.95-40.9-25.52-53.53v-10.93c26.02 9.85 44.52 34.99 44.52 64.46z" fill="#13a279"/><path d="m67.1 51.69c0 8.29-6.72 15-15 15-2.53 0-4.91-.63-7-1.73-4.76-2.51-8-7.51-8-13.27 0-5.75 3.24-10.75 8-13.27 2.09-1.1 4.47-1.73 7-1.73 8.28 0 15 6.72 15 15z" fill="#f9d11f"/><path d="m67.1 51.69c0 8.29-6.72 15-15 15-2.53 0-4.91-.63-7-1.73 4.76-2.51 8-7.51 8-13.27 0-5.75-3.24-10.75-8-13.27 2.09-1.1 4.47-1.73 7-1.73 8.28 0 15 6.72 15 15z" fill="#ffa402"/><g><path d="m22.948 379.155h124.507v125.34h-124.507z" fill="#ff4656"/><path d="m147.455 379.155v125.34h-124.507v-18h93.23c8.43 0 15.28-6.84 15.28-15.28v-92.06z" fill="#d93c49"/></g><g><path d="m364.545 379.155h124.507v125.34h-124.507z" fill="#d65b43"/><path d="m489.052 379.155v125.34h-124.507v-18h93.23c8.43 0 15.28-6.84 15.28-15.28v-92.06z" fill="#b2382b"/></g><g><path d="m147.455 334.154h124.507v170.346h-124.507z" fill="#14bb87"/><path d="m271.962 334.154v170.346h-124.507v-18h93.23c8.43 0 15.28-6.84 15.28-15.28v-137.066z" fill="#13a279"/></g><g><path d="m271.962 423.429h92.583v81.066h-92.583z" fill="#f9d11f"/><path d="m364.545 423.429v81.066h-92.583v-18h61.305c8.43 0 15.28-6.84 15.28-15.28v-47.786z" fill="#ffa402"/></g></g></g><g><path d="m53.173 403.929c-4.142 0-7.5 3.358-7.5 7.5v15c0 4.142 3.358 7.5 7.5 7.5s7.5-3.358 7.5-7.5v-15c0-4.142-3.358-7.5-7.5-7.5z"/><path d="m85.201 403.929c-4.142 0-7.5 3.358-7.5 7.5v15c0 4.142 3.358 7.5 7.5 7.5s7.5-3.358 7.5-7.5v-15c0-4.142-3.358-7.5-7.5-7.5z"/><path d="m116.328 403.929c-4.142 0-7.5 3.358-7.5 7.5v15c0 4.142 3.358 7.5 7.5 7.5s7.5-3.358 7.5-7.5v-15c0-4.142-3.358-7.5-7.5-7.5z"/><path d="m85.201 448.93c-4.142 0-7.5 3.358-7.5 7.5v15c0 4.142 3.358 7.5 7.5 7.5s7.5-3.358 7.5-7.5v-15c0-4.142-3.358-7.5-7.5-7.5z"/><path d="m116.328 448.93c-4.142 0-7.5 3.358-7.5 7.5v15c0 4.142 3.358 7.5 7.5 7.5s7.5-3.358 7.5-7.5v-15c0-4.142-3.358-7.5-7.5-7.5z"/><path d="m504.5 386.656c4.142 0 7.5-3.358 7.5-7.5s-3.358-7.5-7.5-7.5h-38.173v-17.5c0-4.142-3.358-7.5-7.5-7.5s-7.5 3.358-7.5 7.5v17.5h-17.028v-7.5c0-4.142-3.358-7.5-7.5-7.5s-7.5 3.358-7.5 7.5v7.5h-70.201c-4.142 0-7.5 3.358-7.5 7.5s3.358 7.5 7.5 7.5h7.947v29.274h-46.456v-7.5c0-4.142-3.358-7.5-7.5-7.5s-7.5 3.358-7.5 7.5v7.5h-16.127v-74.275h7.948c4.142 0 7.5-3.358 7.5-7.5s-3.358-7.5-7.5-7.5h-38.624v-17.5c0-4.142-3.358-7.5-7.5-7.5s-7.5 3.358-7.5 7.5v17.5h-17.029v-7.5c0-4.142-3.358-7.5-7.5-7.5s-7.5 3.358-7.5 7.5v7.5h-69.75c-4.142 0-7.5 3.358-7.5 7.5s3.358 7.5 7.5 7.5h7.948v30.001h-47.254v-7.5c0-4.142-3.358-7.5-7.5-7.5s-7.5 3.358-7.5 7.5v7.5h-17.028v-17.5c0-4.142-3.358-7.5-7.5-7.5s-7.5 3.358-7.5 7.5v17.5h-38.173c-4.142 0-7.5 3.358-7.5 7.5s3.358 7.5 7.5 7.5h7.948v110.344h-7.948c-4.142 0-7.5 3.358-7.5 7.5s3.358 7.5 7.5 7.5h497c4.142 0 7.5-3.358 7.5-7.5s-3.358-7.5-7.5-7.5h-7.948v-110.344zm-240.038 110.344h-78.832v-40.57c0-4.142-3.358-7.5-7.5-7.5s-7.5 3.358-7.5 7.5v40.57h-15.676v-60.865c0-4.142-3.358-7.5-7.5-7.5s-7.5 3.358-7.5 7.5v60.865h-79.281v-40.57c0-4.142-3.358-7.5-7.5-7.5s-7.5 3.358-7.5 7.5v40.57h-15.225v-110.344h109.507v15.068c0 4.142 3.358 7.5 7.5 7.5s7.5-3.358 7.5-7.5v-60.069h109.507zm92.583 0h-46.456v-40.57c0-4.142-3.358-7.5-7.5-7.5s-7.5 3.358-7.5 7.5v40.57h-16.127v-66.071h77.583zm124.507 0h-78.38v-40.57c0-4.142-3.358-7.5-7.5-7.5s-7.5 3.358-7.5 7.5v40.57h-16.127v-110.344h109.507z"/><path d="m458.827 433.929c4.142 0 7.5-3.358 7.5-7.5v-15c0-4.142-3.358-7.5-7.5-7.5s-7.5 3.358-7.5 7.5v15c0 4.143 3.358 7.5 7.5 7.5z"/><path d="m426.799 433.929c4.142 0 7.5-3.358 7.5-7.5v-15c0-4.142-3.358-7.5-7.5-7.5s-7.5 3.358-7.5 7.5v15c0 4.143 3.358 7.5 7.5 7.5z"/><path d="m395.672 433.929c4.142 0 7.5-3.358 7.5-7.5v-15c0-4.142-3.358-7.5-7.5-7.5s-7.5 3.358-7.5 7.5v15c0 4.143 3.358 7.5 7.5 7.5z"/><path d="m458.827 478.93c4.142 0 7.5-3.358 7.5-7.5v-15c0-4.142-3.358-7.5-7.5-7.5s-7.5 3.358-7.5 7.5v15c0 4.142 3.358 7.5 7.5 7.5z"/><path d="m426.799 478.93c4.142 0 7.5-3.358 7.5-7.5v-15c0-4.142-3.358-7.5-7.5-7.5s-7.5 3.358-7.5 7.5v15c0 4.142 3.358 7.5 7.5 7.5z"/><path d="m334.216 478.93c4.142 0 7.5-3.358 7.5-7.5v-15c0-4.142-3.358-7.5-7.5-7.5s-7.5 3.358-7.5 7.5v15c0 4.142 3.358 7.5 7.5 7.5z"/><path d="m178.131 388.929c4.142 0 7.5-3.358 7.5-7.5v-15c0-4.142-3.358-7.5-7.5-7.5s-7.5 3.358-7.5 7.5v15c0 4.142 3.358 7.5 7.5 7.5z"/><path d="m210.16 388.929c4.142 0 7.5-3.358 7.5-7.5v-15c0-4.142-3.358-7.5-7.5-7.5s-7.5 3.358-7.5 7.5v15c0 4.142 3.358 7.5 7.5 7.5z"/><path d="m241.287 388.929c4.142 0 7.5-3.358 7.5-7.5v-15c0-4.142-3.358-7.5-7.5-7.5s-7.5 3.358-7.5 7.5v15c0 4.142 3.358 7.5 7.5 7.5z"/><path d="m178.131 433.929c4.142 0 7.5-3.358 7.5-7.5v-15c0-4.142-3.358-7.5-7.5-7.5s-7.5 3.358-7.5 7.5v15c0 4.143 3.358 7.5 7.5 7.5z"/><path d="m210.16 433.929c4.142 0 7.5-3.358 7.5-7.5v-15c0-4.142-3.358-7.5-7.5-7.5s-7.5 3.358-7.5 7.5v15c0 4.143 3.358 7.5 7.5 7.5z"/><path d="m241.287 433.929c4.142 0 7.5-3.358 7.5-7.5v-15c0-4.142-3.358-7.5-7.5-7.5s-7.5 3.358-7.5 7.5v15c0 4.143 3.358 7.5 7.5 7.5z"/><path d="m210.16 478.93c4.142 0 7.5-3.358 7.5-7.5v-15c0-4.142-3.358-7.5-7.5-7.5s-7.5 3.358-7.5 7.5v15c0 4.142 3.358 7.5 7.5 7.5z"/><path d="m241.287 478.93c4.142 0 7.5-3.358 7.5-7.5v-15c0-4.142-3.358-7.5-7.5-7.5s-7.5 3.358-7.5 7.5v15c0 4.142 3.358 7.5 7.5 7.5z"/><path d="m28.264 296.756h77.119c12.474 0 22.623-10.148 22.623-22.623 0-12.474-10.148-22.622-22.623-22.622-.758 0-1.513.039-2.263.115-3.162-18.052-18.951-31.814-37.895-31.814-14.576 0-27.532 8.033-34.074 20.565-.958-.1-1.921-.15-2.887-.15-15.585 0-28.264 12.68-28.264 28.265s12.679 28.264 28.264 28.264zm0-41.529c1.584 0 3.168.297 4.707.882 1.936.737 4.089.64 5.951-.267s3.266-2.543 3.879-4.521c3.062-9.875 12.073-16.509 22.423-16.509 12.942 0 23.472 10.53 23.472 23.473 0 .985-.071 2.024-.21 3.086-.398 3.038 1.091 6.012 3.762 7.513 2.669 1.5 5.984 1.227 8.373-.692.954-.767 2.555-1.681 4.762-1.681 4.203 0 7.623 3.419 7.623 7.623 0 4.203-3.419 7.623-7.623 7.623h-77.119c-7.314 0-13.264-5.951-13.264-13.265s5.95-13.265 13.264-13.265z"/><path d="m412.258 251.688h7.541c4.142 0 7.5-3.358 7.5-7.5s-3.358-7.5-7.5-7.5h-7.541c-7.314 0-13.264-5.951-13.264-13.265s5.95-13.265 13.264-13.265c1.584 0 3.168.297 4.707.882 1.935.736 4.089.64 5.951-.267s3.266-2.543 3.879-4.521c3.062-9.875 12.073-16.509 22.423-16.509 12.942 0 23.472 10.53 23.472 23.472 0 1-.069 2.009-.21 3.087-.398 3.038 1.091 6.012 3.762 7.513 2.669 1.5 5.983 1.228 8.373-.692.954-.767 2.555-1.681 4.762-1.681 4.203 0 7.623 3.419 7.623 7.623s-3.419 7.623-7.623 7.623h-34.617c-4.142 0-7.5 3.358-7.5 7.5s3.358 7.5 7.5 7.5h34.618c12.474 0 22.623-10.148 22.623-22.623 0-12.474-10.148-22.622-22.623-22.622-.758 0-1.513.039-2.263.115-3.162-18.052-18.951-31.814-37.895-31.814-14.576 0-27.532 8.033-34.074 20.565-.958-.1-1.921-.15-2.887-.15-15.585 0-28.264 12.68-28.264 28.265s12.678 28.264 28.263 28.264z"/><path d="m385.87 305.562c5.06 0 9.176 4.116 9.176 9.176 0 4.142 3.358 7.5 7.5 7.5s7.5-3.358 7.5-7.5c0-5.06 4.116-9.176 9.176-9.176 4.142 0 7.5-3.358 7.5-7.5s-3.358-7.5-7.5-7.5c-6.459 0-12.335 2.546-16.676 6.688-4.341-4.141-10.217-6.688-16.676-6.688-4.142 0-7.5 3.358-7.5 7.5s3.358 7.5 7.5 7.5z"/><path d="m422.014 85.856c5.06 0 9.176 4.117 9.176 9.177 0 4.142 3.358 7.5 7.5 7.5s7.5-3.358 7.5-7.5c0-5.06 4.116-9.177 9.176-9.177 4.142 0 7.5-3.358 7.5-7.5s-3.358-7.5-7.5-7.5c-6.459 0-12.335 2.546-16.676 6.688-4.341-4.141-10.217-6.688-16.676-6.688-4.142 0-7.5 3.358-7.5 7.5s3.358 7.5 7.5 7.5z"/><path d="m73.87 154.56c-4.142 0-7.5 3.358-7.5 7.5s3.358 7.5 7.5 7.5c5.06 0 9.176 4.117 9.176 9.176 0 4.142 3.358 7.5 7.5 7.5s7.5-3.358 7.5-7.5c0-5.06 4.116-9.176 9.176-9.176 4.142 0 7.5-3.358 7.5-7.5s-3.358-7.5-7.5-7.5c-6.459 0-12.335 2.546-16.676 6.688-4.341-4.142-10.217-6.688-16.676-6.688z"/><path d="m157.731 141.516c4.03-.96 6.518-5.004 5.558-9.034-1.72-7.221-2.592-14.683-2.592-22.178 0-52.55 42.753-95.303 95.303-95.303s95.303 42.753 95.303 95.303-42.753 95.303-95.303 95.303c-33.391 0-63.773-17.01-81.272-45.501-2.168-3.529-6.786-4.633-10.316-2.465-3.529 2.167-4.633 6.786-2.465 10.316 5.025 8.181 10.968 15.542 17.654 21.989v92.88c0 2.359 1.11 4.581 2.996 5.997s4.328 1.864 6.595 1.206l66.808-19.393 66.809 19.393c.688.2 1.391.297 2.09.297 1.606 0 3.19-.516 4.504-1.503 1.886-1.417 2.996-3.638 2.996-5.997v-93.034c20.887-20.083 33.903-48.294 33.903-79.488.001-60.821-49.481-110.303-110.302-110.303s-110.303 49.482-110.303 110.303c0 8.665 1.01 17.296 3 25.654.961 4.03 5.006 6.521 9.034 5.558zm66.388 122.756-29.519 8.568v-70.784c9.061 6.078 18.998 10.771 29.519 13.916zm48.762-4.355-14.791-4.293c-1.366-.396-2.815-.396-4.182 0l-14.791 4.293v-40.581c5.526.841 11.166 1.271 16.881 1.271 5.739 0 11.377-.441 16.881-1.29v40.6zm44.519 12.923-29.519-8.568v-48.361c10.597-3.205 20.525-7.965 29.519-14.013z"/><path d="m256 186.705c42.127 0 76.4-34.273 76.4-76.401s-34.273-76.401-76.4-76.401-76.4 34.273-76.4 76.401 34.273 76.401 76.4 76.401zm-16.881-135.442c5.365-1.536 11.029-2.36 16.881-2.36s11.516.823 16.881 2.36v55.204c0 4.142 3.358 7.5 7.5 7.5s7.5-3.358 7.5-7.5v-48.62c17.686 10.789 29.519 30.268 29.519 52.458s-11.832 41.668-29.519 52.458v-21.964c0-4.142-3.358-7.5-7.5-7.5s-7.5 3.358-7.5 7.5v28.548c-5.365 1.536-11.029 2.36-16.881 2.36s-11.516-.823-16.881-2.36zm-15 6.583v104.916c-17.686-10.789-29.519-30.268-29.519-52.458s11.832-41.668 29.519-52.458z"/><path d="m52.096 74.19c12.407 0 22.5-10.093 22.5-22.5s-10.093-22.5-22.5-22.5-22.5 10.094-22.5 22.5 10.093 22.5 22.5 22.5zm0-30.001c4.136 0 7.5 3.365 7.5 7.5s-3.364 7.5-7.5 7.5-7.5-3.364-7.5-7.5 3.364-7.5 7.5-7.5z"/><circle cx="7.5" cy="51.691" r="7.5"/><circle cx="96.69" cy="51.69" r="7.5"/><circle cx="52.093" cy="7.5" r="7.5"/><circle cx="52.095" cy="96.69" r="7.5"/><circle cx="20.707" cy="20.012" r="7.5"/><path d="m89.078 88.38c2.929-2.929 2.929-7.678 0-10.607s-7.678-2.929-10.607 0-2.929 7.678 0 10.607 7.678 2.929 10.607 0z"/><circle cx="83.487" cy="20.296" r="7.5"/><circle cx="20.421" cy="83.364" r="7.5"/></g></svg>