<svg height="512" viewBox="0 0 54 58" width="512" xmlns="http://www.w3.org/2000/svg"><g id="Page-1" fill="none" fill-rule="evenodd"><g id="005---Italy-Location" fill-rule="nonzero" transform="translate(-1)"><path id="Shape" d="m45.74 33.25.1.07c.43.27.84.55 1.25.83 1.08.75 2.37 1.6 2.79 2.93.4428781 1.082819.0776263 2.3279956-.88 3-1.39.74-2.26-1.09-3.18-1.86-.83-.7-2.38-1.74-3.24-.5-.3551692.5277777-.3746332 1.2129098-.05 1.76.41.69 1.21.96 1.68 1.59.6487302.8742863.8892387 1.985727.66 3.05-.35 1.58-1.8.68-2.35 1.73-.1317807.2920871-.2194051.602143-.26.92-.28 1.43-1.19 3.66-2.76 4.08-.73.2-1.5-.25-2.21.13-1.16.63.07 2.6-.05 3.63-.1671291.6608809-.3982197 1.3039156-.69 1.92-.16.48-.1.92-.58 1.25-.2493177.1526461-.5378064.229113-.83.22-1.2847344-.078881-2.4889751-.652329-3.36-1.6-.3434165-.4896331-.8447951-.8462475-1.42-1.01-.6269926-.0808894-1.2416257-.238746-1.83-.47-.959265-.7516425-2.01123-1.3767719-3.13-1.86-.36-.1-.74-.14-1.09-.27-2.27-.9-1.26-4.35.83-4.71.8791779-.2912598 1.8155273-.3667165 2.73-.22.68.21 1.23.88 1.99.82 1.4965131-.1725911 2.9731828-.4873461 4.41-.94.778185-.1056102 1.5344308-.3351848 2.24-.68.8082006-.6681319 1.4659305-1.499666 1.93-2.44.59-.91-.86-3.32-1.25-4.18-.46-1-.62-.33-1.47-.71-1.49-.65-1.78-1.59-2.7-2.79-.96-1.26-2.73-2.04-3.92-3.11-.93-.84-2.33-.2-3.37-.92-.22-.15-.41-.35-.62-.52-.5717243-.3488449-1.1165753-.7399343-1.63-1.17-.43-.45-.74-1.01-1.2-1.44-1.18-1.12-2.35-2.24-3.59-3.3-1.41-1.21-2.91-2.66-3.36-4.54-.1136878-.9175381-.273894-1.8287113-.48-2.73-.4119408-1.0243521-1.2089258-1.8464672-2.22-2.29-.35-.2-2.16-1.58-2.57-1.19-.7087206.8848773-1.4879338 1.7109102-2.33 2.47-.77.51-2.36 1.28-3.13.4-1.51-1.73-3.16-3.83-3.53-6.15-.13139999-.6059208-.08981825-1.2365771.12-1.82.28-.68 1.09-1 1.29-1.72.22-.79-.36-1.53-.19-2.32.2-.95 1.17-1.17 2-1.3 1.3621331-.19417874 2.59000301-.92513942 3.41-2.03 1.31-1.35 2.39.89 3.78.27.63-.28 1.04-.92 1.78-.96.71-.04 1.44.25 2.05-.21.65-.5 1.06-1.38 1.88-1.63 1.3932193-.49277193 2.862295-.73648956 4.34-.72 1.36.06 2.17.81 3.28 1.5 1.15.71 2.88.54 4.14 1.05 1.09.43 1.11 1.45 1.01 2.45-.13 1.41.48 3.3-1.13 4.04-1 .46-4.08.11-3.9 1.89.07.68.51 1.01.35 1.72-.13.58-.58 1.04-.67 1.65-.26 1.94 1.76 2.06 3.05 3.6 3.98 1.61 1.96 5.95 5.46 8.02.84.5 1.85 1.7 2.71 1.55.2-.04.4-.07.58-.09z" fill="#4fba6f"/><path id="Shape" d="m14.17 36.02c-.1236465 1.238553-.3274066 2.4677942-.61 3.68-.17 1.04-.22 2.09-.4 3.13-.0428261.4168326-.1907815.815968-.43 1.16-.53.67-1.84.3-2.56.8-.52941857.5346241-1.24766729.8398798-2 .85-.71141102-.0842029-1.34695347-.4846314-1.73-1.09-.35227164-.6411306-.5119978-1.3703152-.46-2.1.05-2.14.85-4.33.16-6.36-.34367092-.6576995-.5253733-1.3879374-.53-2.13.26-1.55 1.89-.9 2.94-1.39.91-.42 1.54-1.44 2.6-1.47 1.1119187.1291555 2.0520435.8828092 2.42 1.94.1992245.4459275.3500859.9119216.45 1.39.1097744.5226514.160094 1.0560402.15 1.59z" fill="#4fba6f"/><path id="Shape" d="m54.95 18.18c-.61 7.91-6.28 13.03-9.21 15.07-.22.16-.43.3-.62.42-.6777812.4379162-1.5483187.44182-2.23.01-2.5489896-1.6546913-4.750207-3.7913669-6.48-6.29-2.2090556-3.1014333-3.4005801-6.8122807-3.41-10.62.037586-3.07068 1.3670888-5.9834434 3.6623156-8.02364499 2.2952267-2.04020157 5.3437749-3.01903903 8.3976844-2.69635501 6.042129.68956297 10.4312514 6.0727839 9.89 12.13z" fill="#e64c3c"/><circle id="Oval" cx="44" cy="17" fill="#f3d55b" r="6"/><path id="Shape" d="m44 24c-3.8659932 0-7-3.1340068-7-7s3.1340068-7 7-7 7 3.1340068 7 7c-.0044086 3.8641657-3.1358343 6.9955914-7 7zm0-12c-2.7614237 0-5 2.2385763-5 5s2.2385763 5 5 5 5-2.2385763 5-5c-.0033061-2.7600532-2.2399468-4.9966939-5-5z" fill="#f5efca"/></g></g></svg>