<svg id="Capa_1" enable-background="new 0 0 512 512" height="512" viewBox="0 0 512 512" width="512" xmlns="http://www.w3.org/2000/svg"><g><g><g><path d="m235.382 138.72-11.382 95.947 11.382 137.377h137.326v-149.089l-137.228-84.288z" fill="#ffdc9e"/><path d="m235.382 138.72-125.426 84.633v148.691h125.426z" fill="#ffebba"/></g><path d="m183.665 219.211h30v30h-30z" fill="#ffc869"/><path d="m268.999 219.211h30v30h-30z" fill="#ffb64b"/><g><path d="m235.48 125.371-.098.054-11.382 16.575 11.382 13.341.098-.053 137.228 67.667v-29.916z" fill="#ffb64b"/><path d="m235.382 125.425-125.426 68.012v29.916l125.426-68.012z" fill="#ffc869"/></g></g><g><path d="m427.128 294.576h30v45.09h-30z" fill="#bc6b2c"/><path d="m463.971 133.313c-7.697-14.966-21.817-33.162-21.817-33.162h-.052l-.01-.009s-14.111 18.205-21.807 33.171c-26.013 50.58-29.932 78.315-29.932 115.88 0 28.534 23.214 51.749 51.749 51.749h.052c28.535 0 51.749-23.215 51.749-51.749 0-37.566-3.919-65.3-29.932-115.88z" fill="#0dca71"/></g><g><path d="m45.511 261.89h30v80.443h-30z" fill="#da7700"/><path d="m86.083 69.5c-9-17.5-25.511-38.777-25.511-38.777h-.061l-.011-.011s-16.5 21.288-25.5 38.788c-30.417 59.144-35 91.575-35 135.501 0 33.366 27.145 60.511 60.511 60.511h.061c33.366 0 60.511-27.145 60.511-60.511 0-43.926-4.583-76.357-35-135.501z" fill="#04db7b"/></g><path d="m512 481.288h-45l-140.647-163.603c13.21-2.382 26.705-3.593 40.365-3.593 51.204 0 99.469 16.742 139.579 48.414l5.703 4.504z" fill="#fd8c02"/><g><g><path d="m466.794 481.288-5.521-19.154c-14.944-51.853-48.078-98.604-93.297-131.643-38.916-28.434-84.293-45.64-132.596-50.498l-11.38 125.34 11.382 62.953 161.118 13.002z" fill="#fdc202"/><path d="m3.721 368.864-3.721 4.244v108.18h17.5l217.882-13.001v-188.294c-9.411-.947-18.93-1.433-28.537-1.433-78.779 0-152.815 32.914-203.124 90.304z" fill="#fdd902"/></g><path d="m396.399 481.288-8.529-20.712c-13.716-33.306-37.952-61.751-70.089-82.26-24.749-15.794-52.822-25.929-82.4-29.897v132.869z" fill="#fda102"/><path d="m95.907 378.316c-32.137 20.509-56.373 48.954-70.089 82.26l-8.529 20.712h218.092v-132.87c-9.381-1.258-18.911-1.903-28.537-1.903-39.976.001-78.338 10.997-110.937 31.801z" fill="#fdb902"/></g></g></svg>