<svg id="Capa_1" enable-background="new 0 0 512 512" height="512" viewBox="0 0 512 512" width="512" xmlns="http://www.w3.org/2000/svg"><g><path d="m349.11 102.242-124.162-10.103 7.53-89.448c.131-1.612 1.544-2.812 3.156-2.681l118.326 9.628c1.612.131 2.812 1.544 2.681 3.156z" fill="#d6b489"/><path d="m326.074 7.369-8.193 92.242 31.229 2.631 7.53-89.448c.131-1.612-1.069-3.025-2.681-3.156z" fill="#c9a47d"/><g fill="#c29a71"><path d="m260.094 34.446c-4.106-.343-7.748 2.737-8.084 6.867l-3.676 45.179c-.336 4.129 2.739 7.748 6.867 8.083.207.017.412.025.617.025 3.865 0 7.147-2.971 7.467-6.892l3.676-45.179c.336-4.128-2.739-7.747-6.867-8.083z"/><path d="m291.924 37.036c-4.111-.345-7.748 2.737-8.084 6.867l-3.676 45.179c-.336 4.129 2.739 7.748 6.867 8.083.207.017.412.025.617.025 3.865 0 7.147-2.971 7.467-6.892l3.676-45.179c.336-4.128-2.739-7.747-6.867-8.083z"/><path d="m323.755 39.626c-4.122-.337-7.748 2.738-8.084 6.867l-3.677 45.179c-.336 4.128 2.738 7.748 6.867 8.083.207.017.412.025.616.025 3.866 0 7.148-2.971 7.468-6.892l3.677-45.179c.336-4.127-2.738-7.747-6.867-8.083z"/></g><path d="m341.061 500.153-172.5-14.036 32.504-399.458c.179-2.202 2.109-3.842 4.311-3.662l164.527 13.388c2.202.179 3.842 2.109 3.662 4.311z" fill="#e3c7a4"/><path d="m343.086 94.202-32.829 403.445 30.804 2.507 32.504-399.458c.179-2.202-1.461-4.132-3.662-4.311z" fill="#d6b489"/><g fill="#c29a71"><path d="m234.275 491.464-34.911-2.841 6.681-82.101c.784-9.64 9.235-16.819 18.876-16.035 9.64.784 16.819 9.235 16.035 18.876z"/><path d="m310.257 497.647-34.911-2.841 6.681-82.101c.784-9.64 9.235-16.819 18.876-16.035 9.64.784 16.819 9.235 16.035 18.876z"/><g><path d="m369.174 154.67-172.501-14.037c-4.105-.343-7.748 2.737-8.084 6.867-.336 4.128 2.739 7.748 6.867 8.083l172.501 14.037c.207.017.412.025.616.025 3.866 0 7.148-2.971 7.468-6.892.336-4.128-2.739-7.747-6.867-8.083z"/><path d="m363.849 220.107-172.5-14.037c-4.127-.337-7.748 2.738-8.084 6.867s2.739 7.748 6.867 8.083l172.5 14.037c.207.017.412.025.617.025 3.865 0 7.147-2.971 7.467-6.892.336-4.128-2.739-7.747-6.867-8.083z"/><path d="m358.524 285.543-172.5-14.037c-4.12-.336-7.747 2.738-8.084 6.867-.336 4.128 2.739 7.748 6.867 8.083l172.5 14.037c.207.017.412.025.617.025 3.865 0 7.147-2.971 7.467-6.892.337-4.127-2.739-7.747-6.867-8.083z"/><path d="m353.199 350.98-172.5-14.037c-4.103-.339-7.748 2.737-8.084 6.867-.336 4.128 2.739 7.748 6.867 8.083l172.5 14.037c.207.017.412.025.616.025 3.866 0 7.148-2.971 7.468-6.892.336-4.127-2.739-7.747-6.867-8.083z"/><path d="m224.106 133.745c.207.017.412.025.616.025 3.866 0 7.148-2.971 7.468-6.892l1.337-16.429c.336-4.128-2.739-7.748-6.867-8.083-4.108-.337-7.748 2.737-8.084 6.867l-1.337 16.429c-.336 4.128 2.74 7.747 6.867 8.083z"/><path d="m253.884 136.168c.207.017.412.025.616.025 3.866 0 7.148-2.971 7.468-6.892l1.337-16.429c.336-4.128-2.739-7.748-6.867-8.083-4.114-.337-7.748 2.737-8.084 6.867l-1.337 16.429c-.336 4.128 2.739 7.747 6.867 8.083z"/><path d="m283.66 138.591c.207.017.412.025.617.025 3.865 0 7.147-2.971 7.467-6.892l1.337-16.429c.336-4.128-2.739-7.748-6.867-8.083-4.129-.344-7.748 2.738-8.084 6.867l-1.337 16.429c-.336 4.128 2.739 7.747 6.867 8.083z"/><path d="m313.438 141.014c.207.017.412.025.617.025 3.865 0 7.147-2.971 7.467-6.892l1.337-16.428c.336-4.128-2.738-7.748-6.867-8.083-4.105-.338-7.748 2.737-8.084 6.867l-1.337 16.428c-.337 4.128 2.738 7.747 6.867 8.083z"/><path d="m343.214 143.437c.207.017.412.025.616.025 3.866 0 7.148-2.971 7.468-6.892l1.337-16.429c.336-4.128-2.739-7.748-6.867-8.083-4.11-.338-7.748 2.737-8.084 6.867l-1.337 16.429c-.336 4.128 2.739 7.747 6.867 8.083z"/><path d="m219.377 199.485c3.865 0 7.147-2.971 7.467-6.892l1.337-16.429c.336-4.128-2.739-7.748-6.867-8.083-4.12-.343-7.747 2.739-8.084 6.867l-1.337 16.429c-.336 4.128 2.739 7.748 6.867 8.083.207.017.412.025.617.025z"/><path d="m249.152 201.908c3.866 0 7.148-2.971 7.468-6.892l1.337-16.429c.336-4.128-2.739-7.748-6.867-8.083-4.116-.345-7.748 2.737-8.084 6.867l-1.337 16.429c-.336 4.128 2.739 7.748 6.867 8.083.207.016.412.025.616.025z"/><path d="m278.93 204.331c3.866 0 7.148-2.971 7.468-6.892l1.337-16.429c.336-4.128-2.739-7.748-6.867-8.083-4.103-.345-7.748 2.737-8.084 6.867l-1.337 16.429c-.336 4.128 2.739 7.748 6.867 8.083.207.016.412.025.616.025z"/><path d="m308.707 206.753c3.865 0 7.147-2.971 7.467-6.892l1.337-16.428c.336-4.128-2.738-7.748-6.867-8.083-4.107-.346-7.748 2.737-8.084 6.867l-1.337 16.428c-.336 4.128 2.738 7.748 6.867 8.083.207.017.412.025.617.025z"/><path d="m338.484 209.177c3.865 0 7.147-2.971 7.467-6.892l1.337-16.429c.336-4.128-2.739-7.748-6.867-8.083-4.137-.336-7.747 2.738-8.084 6.867l-1.337 16.428c-.336 4.128 2.739 7.748 6.867 8.083.207.017.412.026.617.026z"/><path d="m214.113 264.172c3.865 0 7.147-2.971 7.467-6.892l1.337-16.429c.336-4.128-2.739-7.748-6.867-8.083-4.134-.344-7.748 2.739-8.084 6.867l-1.337 16.429c-.336 4.128 2.739 7.748 6.867 8.083.207.017.412.025.617.025z"/><path d="m243.889 266.595c3.866 0 7.148-2.971 7.468-6.892l1.337-16.429c.336-4.128-2.739-7.748-6.867-8.083-4.104-.344-7.748 2.737-8.084 6.867l-1.337 16.429c-.336 4.128 2.739 7.748 6.867 8.083.206.017.412.025.616.025z"/><path d="m273.667 269.018c3.865 0 7.147-2.971 7.467-6.892l1.337-16.428c.336-4.128-2.738-7.748-6.867-8.083-4.11-.344-7.748 2.737-8.084 6.867l-1.337 16.428c-.336 4.128 2.738 7.748 6.867 8.083.207.017.412.025.617.025z"/><path d="m303.443 271.441c3.865 0 7.147-2.971 7.467-6.892l1.337-16.429c.336-4.128-2.739-7.748-6.867-8.083-4.132-.339-7.748 2.738-8.084 6.867l-1.337 16.429c-.336 4.128 2.739 7.748 6.867 8.083.207.017.412.025.617.025z"/><path d="m333.221 273.864c3.865 0 7.147-2.971 7.467-6.892l1.337-16.429c.336-4.128-2.739-7.748-6.867-8.083-4.131-.337-7.748 2.738-8.084 6.867l-1.337 16.429c-.336 4.128 2.739 7.748 6.867 8.083.207.017.412.025.617.025z"/><path d="m208.766 329.887c3.865 0 7.147-2.971 7.467-6.892l1.337-16.429c.336-4.128-2.739-7.748-6.867-8.083-4.123-.339-7.748 2.738-8.084 6.867l-1.337 16.429c-.336 4.128 2.739 7.748 6.867 8.083.206.016.412.025.617.025z"/><path d="m238.543 332.31c3.865 0 7.147-2.971 7.467-6.892l1.337-16.428c.336-4.128-2.738-7.748-6.867-8.083-4.107-.342-7.748 2.737-8.084 6.867l-1.337 16.428c-.336 4.128 2.738 7.748 6.867 8.083.207.016.412.025.617.025z"/><path d="m268.318 334.733c3.866 0 7.148-2.971 7.468-6.892l1.337-16.429c.336-4.128-2.739-7.748-6.867-8.083-4.112-.342-7.748 2.737-8.084 6.867l-1.337 16.429c-.336 4.128 2.739 7.748 6.867 8.083.207.017.412.025.616.025z"/><path d="m298.096 337.156c3.867 0 7.148-2.971 7.468-6.893l1.336-16.429c.336-4.128-2.739-7.748-6.868-8.083-4.121-.335-7.747 2.74-8.083 6.867l-1.336 16.429c-.336 4.128 2.739 7.748 6.868 8.083.206.017.412.026.615.026z"/><path d="m327.873 339.579c3.865 0 7.147-2.971 7.467-6.892l1.337-16.429c.336-4.128-2.739-7.748-6.867-8.083-4.12-.342-7.747 2.738-8.084 6.867l-1.337 16.429c-.336 4.128 2.739 7.748 6.867 8.083.207.016.412.025.617.025z"/></g></g><path d="m498.608 512h-485.216c-7.396 0-13.392-5.996-13.392-13.392 0-7.396 5.996-13.392 13.392-13.392h485.215c7.396 0 13.392 5.996 13.392 13.392.001 7.396-5.995 13.392-13.391 13.392z" fill="#d4e157"/><path d="m498.608 512h-485.216c-7.396 0-13.392-5.996-13.392-13.392 0-7.396 5.996-13.392 13.392-13.392h485.215c7.396 0 13.392 5.996 13.392 13.392.001 7.396-5.995 13.392-13.391 13.392z" fill="#d4e157"/><path d="m498.608 485.215h-30.905c7.396 0 13.392 5.996 13.392 13.392s-5.996 13.392-13.392 13.392h30.905c7.396 0 13.392-5.996 13.392-13.392s-5.996-13.392-13.392-13.392z" fill="#c3d136"/></g></svg>