<svg id="Layer_1" enable-background="new 0 0 511.975 511.975" height="512" viewBox="0 0 511.975 511.975" width="512" xmlns="http://www.w3.org/2000/svg"><g><path d="m292.668 0-216.984 24.589v167.658c-6.917-3.33-14.665-5.197-22.842-5.197-29.137 0-52.842 23.704-52.842 52.842s23.705 52.842 52.842 52.842 52.842-23.705 52.842-52.842v-124.941l156.984-17.79v73.897c-6.917-3.33-14.666-5.198-22.842-5.198-29.137 0-52.842 23.705-52.842 52.842s23.705 52.842 52.842 52.842 52.842-23.705 52.842-52.842z" fill="#7ed7ff"/><g><path d="m340.006 56.798h30v30.002h-30z" fill="#fff0be"/></g><g><path d="m52.673 339.193h30v30.002h-30z" fill="#fff0be"/></g><g><path d="m81.34 450.278h30v30.002h-30z" fill="#fff0be"/></g><path d="m218.804 375.217h-19.755v-19.756h-30v19.756h-19.755v30h19.755v19.755h30v-19.755h19.755z" fill="#ffe17c"/><path d="m452.936 150.605h-19.755v-19.755h-30v19.755h-19.755v30h19.755v19.755h30v-19.755h19.755z" fill="#ffe17c"/><path d="m511.975 261.634-187.588 21.127v138.92c-5.188-1.994-10.814-3.098-16.696-3.098-25.749 0-46.696 20.948-46.696 46.696 0 25.749 20.948 46.696 46.696 46.696s46.696-20.948 46.696-46.696v-97.679l127.588-14.37v50.702c-5.188-1.994-10.814-3.098-16.696-3.098-25.748 0-46.696 20.948-46.696 46.696 0 25.749 20.948 46.696 46.696 46.696s46.696-20.948 46.696-46.696z" fill="#ff7169"/><g><path d="m340.006 56.798h30v30.002h-30z" fill="#ffe17c"/></g><path d="m452.936 150.605h-19.755v-19.755h-30v19.755h-19.755v30h19.755v19.755h30v-19.755h19.755z" fill="#ffd23b"/><path d="m184.049 12.309v93.761l78.619-8.91v73.897c-6.917-3.33-14.666-5.198-22.842-5.198-29.137 0-52.842 23.705-52.842 52.842s23.705 52.842 52.842 52.842 52.842-23.705 52.842-52.842v-218.701z" fill="#3ec3ff"/><path d="m418.181 272.197v88.218l63.794-7.185v50.702c-5.188-1.994-10.814-3.098-16.696-3.098-25.748 0-46.696 20.948-46.696 46.696 0 25.749 20.948 46.696 46.696 46.696s46.696-20.948 46.696-46.696v-185.896z" fill="#ff5178"/></g></svg>