<svg id="Capa_1" enable-background="new 0 0 512 512" height="512" viewBox="0 0 512 512" width="512" xmlns="http://www.w3.org/2000/svg"><g><g><path d="m512 256c0 141.387-114.613 256-256 256s-256-114.613-256-256 114.613-256 256-256 256 114.613 256 256zm0 0" fill="#f7de82"/><path d="m512 256c0 26.051-3.891 51.191-11.129 74.871-5.031 16.469-11.672 32.231-19.75 47.109-8.25 15.2-18 29.461-29.051 42.61-.582.691-1.16 1.379-1.75 2.058-46.941 54.704-116.59 89.352-194.32 89.352s-147.379-34.648-194.309-89.352c-.589-.687-1.179-1.378-1.75-2.07-11.062-13.137-20.812-27.398-29.05-42.598-3.289-6.031-6.332-12.21-9.121-18.531-14-31.629-21.77-66.629-21.77-103.449 0-46.219 12.25-89.57 33.68-127 44.121 77.07 127.16 129 222.32 129s178.211-51.93 222.32-129c21.43 37.43 33.68 80.781 33.68 127zm0 0" fill="#efc142"/><path d="m481.262 377.699c-7.16 13.223-15.434 25.742-24.723 37.43-8.437 10.633-17.719 20.57-27.719 29.723-45.539 41.699-106.211 67.148-172.82 67.148s-127.281-25.449-172.82-67.148c-10-9.153-19.282-19.09-27.719-29.723-9.289-11.688-17.563-24.207-24.723-37.43zm0 0" fill="#363d58"/></g><g><path d="m305.525 310.604c-8.235 0-15.346 0-25.981-4.572l-.022-.011c-4.44-6.952-8.284-14.213-11.747-21.628l-25.319-8.253 17.29-12.543c-2.311-7.023-4.084-14.178-5.551-21.432l-23.694-11.157 20.612-10.876c-.39-4.828-1.058-9.618-1.074-14.488 0 0 .801-17.093 1.067-17.366l-39.12-25.39-36.81-23.892c-29.532 14.702-54.312 23.01-85.237 53.95l-11.92 11.888 46.011 46.011.847.847 19.073 8.006-.831 10.237 18.256 18.256 20.667 9.599-2.425 8.643 70.571 71.309h55.333c18.308 0 33.2-15.63 33.2-33.938.004-18.308-14.888-33.2-33.196-33.2z" fill="#d1f9f6"/><path d="m305.525 310.604c-8.235 0-15.346 0-25.981-4.572l-.022-.011c-4.44-6.952-8.284-14.213-11.747-21.628l-25.319-8.253 17.29-12.543c-2.311-7.023-4.084-14.178-5.551-21.432l-23.694-11.157 20.612-10.876c-.39-4.828-1.058-9.618-1.074-14.488 0 0 .801-17.093 1.067-17.366l-39.12-25.39-16.116-3.198c-29.532 14.702-54.312 23.01-85.237 53.95l-11.92 11.888 25.316 25.316.847.847 19.073 8.006-.831 10.237 18.256 18.256 20.667 9.599-2.425 8.643 70.571 71.309h55.333c18.308 0 33.2-15.63 33.2-33.938.005-18.307-14.887-33.199-33.195-33.199z" fill="#abecfe"/><path d="m143.952 259.696-.831 10.237 18.256 18.256 20.667 9.599-2.425 8.643 70.571 71.309h55.333c18.308 0 33.2-15.63 33.2-33.938s-14.892-33.2-33.2-33.2c-8.235 0-15.346 0-25.981-4.572l-.022-.011c-4.44-6.952-8.284-14.213-11.747-21.628l-25.319-8.253 17.29-12.543c-2.311-7.023-4.084-14.178-5.551-21.432l-23.694-11.157 20.612-10.876c-.39-4.828-1.058-9.618-1.074-14.488 0 0 .801-17.093 1.067-17.366l-39.12-25.39-87.956 87.956.847.847z" fill="#8ab8ec"/><path d="m259.747 263.598-98.369 24.592 18.243 18.243 88.155-22.039c-3.156-6.756-5.706-13.734-8.029-20.796z" fill="#dddfe7"/><path d="m251.115 220.132-126.236 31.559 18.243 18.243 111.074-27.768c-1.47-7.273-2.48-14.604-3.081-22.034z" fill="#dddfe7"/><path d="m292.145 2.552c-1.72 2.538-3.95 5.837-7.345 11.184-12.054 18.956-30.698 42.059-47.995 61.687l15.364 37.499 4.893 4.893 10.979 10.98 31.737 9.605c23.03-23.605 64.229-65.87 95.063-97.505-30.407-19.667-65.25-33.05-102.696-38.343z" fill="#cc896d"/><path d="m320.754 8.269c-1.021 1.557-2.179 3.347-3.525 5.467-12.054 18.956-45.772 57.76-63.069 77.387l-1.992 21.798 4.893 4.893 10.979 10.98 31.737 9.605c23.03-23.605 64.229-65.87 95.063-97.505-22.512-14.56-47.453-25.683-74.086-32.625z" fill="#ae6e60"/><path d="m355.016 19.859-97.955 97.955 10.979 10.98 31.737 9.605c23.03-23.605 64.229-65.87 95.063-97.505-12.561-8.124-25.878-15.18-39.824-21.035z" fill="#90574d"/><path d="m268.128 106.748-31.324-31.325c-5.096 5.782-61.626 63.572-61.626 63.572l24.889 24.889c1.867 1.867 3.953 3.333 5.94 4.984 13.235 11 28.818 17.535 45.1 19.41 4.344-4.453 43.239-44.311 48.669-49.878z" fill="#fbf5eb"/><path d="m299.777 138.399-31.649-31.652-62.12 62.12c13.235 11 28.818 17.535 45.1 19.41 4.344-4.452 43.238-44.31 48.669-49.878z" fill="#dddfe7"/></g><g fill="#fff"><path d="m376.286 217.924h-1.524c-6.754 0-12.226-5.477-12.226-12.227v-1.523h-8.715v1.523c0 6.75-5.477 12.227-12.227 12.227h-1.527v8.715h1.527c6.75 0 12.227 5.472 12.227 12.226v1.528h8.715v-1.528c0-6.754 5.472-12.226 12.226-12.226h1.524zm0 0"/><path d="m469.264 240.026h-1.524c-6.754 0-12.226-5.477-12.226-12.227v-1.523h-8.715v1.523c0 6.75-5.477 12.227-12.227 12.227h-1.527v8.715h1.527c6.75 0 12.227 5.472 12.227 12.226v1.528h8.715v-1.528c0-6.754 5.472-12.226 12.226-12.226h1.524zm0 0"/><path d="m433.905 316.048h-1.524c-6.754 0-12.226-5.477-12.226-12.227v-1.523h-8.715v1.523c0 6.75-5.477 12.227-12.227 12.227h-1.527v8.715h1.527c6.75 0 12.227 5.472 12.227 12.226v1.528h8.715v-1.528c0-6.754 5.472-12.226 12.226-12.226h1.524zm0 0"/><path d="m404.169 131.435h-1.524c-6.754 0-12.226-5.477-12.226-12.227v-1.523h-8.715v1.523c0 6.75-5.477 12.227-12.227 12.227h-1.527v8.715h1.527c6.75 0 12.227 5.472 12.227 12.226v1.528h8.715v-1.528c0-6.754 5.472-12.226 12.226-12.226h1.524zm0 0"/></g></g></svg>