<svg id="Layer_1" enable-background="new 0 0 512 512" height="512" viewBox="0 0 512 512" width="512" xmlns="http://www.w3.org/2000/svg"><g><g><path d="m182 449.5c-65.998 0-119.5-73.502-119.5-139.5v-141.491c0-2.765 2.244-5.005 5.009-5l15.907.028c23.806.041 45.384-13.995 54.996-35.774l1.456-3.3c1.599-3.624 5.187-5.962 9.149-5.962h66.028c3.929 0 7.494 2.301 9.113 5.882l1.749 3.869c9.727 21.522 31.174 35.335 54.792 35.289l15.792-.031c2.765-.005 5.01 2.235 5.01 5v141.49c-.001 65.998-53.503 139.5-119.501 139.5z" fill="#c3aff0"/><path d="m301.5 168.51v141.49c0 66-53.5 139.5-119.5 139.5-5.08 0-10.09-.44-15-1.27 58.92-10 104.5-77.31 104.5-138.23v-141.49c0-2.77-2.24-5.01-5.01-5l-15.79.03c-23.62.05-45.07-13.77-54.79-35.29l-1.75-3.87c-1.62-3.58-5.19-5.88-9.11-5.88h30c3.92 0 7.49 2.3 9.11 5.88l1.75 3.87c9.72 21.52 31.17 35.34 54.79 35.29l15.79-.03c2.77-.01 5.01 2.23 5.01 5z" fill="#a69ded"/><ellipse cx="125" cy="280" fill="#fff" rx="32.5" ry="21.5"/><path d="m231.158 378.117c1.387.998 3.307-.082 3.169-1.785-2.172-26.721-24.546-47.73-51.827-47.73h-1c-27.281 0-49.655 21.008-51.827 47.73-.138 1.703 1.782 2.782 3.169 1.785 32.772-23.575 65.544-23.575 98.316 0z" fill="#fff"/><path d="m316.5 504.5c-8.284 0-15-6.716-15-15v-45c0-8.284 6.716-15 15-15 8.284 0 15 6.716 15 15v45c0 8.284-6.716 15-15 15z" fill="#f0e5e0"/><path d="m300 338.5c-65.998 0-119.5-73.502-119.5-139.5v-141.491c0-2.765 2.244-5.005 5.009-5l15.907.028c23.806.041 45.384-13.995 54.996-35.774l1.456-3.3c1.599-3.624 5.187-5.962 9.149-5.962h66.028c3.929 0 7.494 2.301 9.113 5.882l1.749 3.869c9.727 21.522 31.174 35.335 54.792 35.289l15.792-.031c2.765-.005 5.01 2.235 5.01 5v141.49c-.001 65.998-53.503 139.5-119.501 139.5z" fill="#ccf49f"/><path d="m419.5 57.51v141.49c0 66-53.5 139.5-119.5 139.5-5.08 0-10.09-.44-15-1.27 58.92-10 104.5-77.31 104.5-138.23v-143.49c0-1.64-.78-3.09-2-4 3.65.69 7.4 1.04 11.2 1.03l15.79-.03c2.77-.01 5.01 2.23 5.01 5z" fill="#b3e59f"/><ellipse cx="357" cy="169" fill="#fff" rx="32.5" ry="21.5"/><path d="m201.15 272.55c11.56 20.14 27.4 37.7 45.96 49.62 3.41-5.41 5.39-11.81 5.39-18.67 0-9.66-3.92-18.42-10.25-24.75s-15.09-10.25-24.75-10.25c-5.9 0-11.47 1.46-16.35 4.05z" fill="#b3e59f"/><ellipse cx="243" cy="169" fill="#fff" rx="32.5" ry="21.5"/><path d="m349.158 219.985c1.387-.998 3.307.082 3.169 1.785-2.172 26.721-24.546 47.73-51.827 47.73h-1c-27.281 0-49.655-21.008-51.827-47.73-.138-1.703 1.782-2.782 3.169-1.785 32.772 23.575 65.544 23.575 98.316 0z" fill="#fff"/><path d="m398.85 272.55c-11.56 20.14-27.4 37.7-45.96 49.62-3.41-5.41-5.39-11.81-5.39-18.67 0-9.66 3.92-18.42 10.25-24.75s15.09-10.25 24.75-10.25c5.9 0 11.47 1.46 16.35 4.05z" fill="#b3e59f"/><path d="m398.85 272.55c-11.56 20.14-27.4 37.7-45.96 49.62-3.41-5.41-5.39-11.81-5.39-18.67 0-.69.02-1.37.06-2.05 8.54-9.11 16.04-19.46 22.23-30.57 3.93-1.54 8.23-2.38 12.71-2.38 5.9 0 11.47 1.46 16.35 4.05z" fill="#95d6a4"/><g fill="#f0e5e0"><path d="m449.5 112.5h-30v-45h20c5.523 0 10 4.477 10 10z"/><path d="m434.5 393.5c-8.284 0-15-6.716-15-15v-45c0-8.284 6.716-15 15-15 8.284 0 15 6.716 15 15v45c0 8.284-6.716 15-15 15z"/></g></g><g><path d="m165 280c0-16.262-17.57-29-40-29s-40 12.738-40 29 17.57 29 40 29 40-12.738 40-29zm-65 0c0-6.622 10.267-14 25-14s25 7.378 25 14-10.267 14-25 14-25-7.378-25-14z"/><path d="m126.994 384.767c1.45.819 3.062 1.224 4.67 1.224 1.958 0 3.912-.601 5.558-1.785 30.131-21.675 59.426-21.674 89.556 0 2.998 2.157 7.014 2.377 10.229.562 3.213-1.815 5.096-5.364 4.796-9.042-1.207-14.85-7.911-28.622-18.876-38.78-11.028-10.216-25.385-15.842-40.426-15.842h-1c-15.042 0-29.398 5.626-40.426 15.842-10.966 10.158-17.669 23.93-18.876 38.778-.301 3.678 1.582 7.228 4.795 9.043zm54.506-48.664h1c18.69 0 35.053 11.835 41.535 28.553-27.942-15.725-56.126-15.725-84.069 0 6.481-16.717 22.844-28.553 41.534-28.553z"/><path d="m160.556 228.651c-23.593-10.526-47.519-10.526-71.111 0-3.783 1.688-5.481 6.122-3.793 9.905s6.122 5.481 9.905 3.793c19.813-8.839 39.075-8.839 58.889 0 .993.443 2.03.653 3.051.653 2.87 0 5.609-1.656 6.854-4.446 1.686-3.783-.013-8.218-3.795-9.905z"/><path d="m357 140c-22.43 0-40 12.738-40 29s17.57 29 40 29 40-12.738 40-29-17.57-29-40-29zm0 43c-14.732 0-25-7.378-25-14s10.268-14 25-14 25 7.378 25 14-10.268 14-25 14z"/><path d="m243 198c22.43 0 40-12.738 40-29s-17.57-29-40-29-40 12.738-40 29 17.57 29 40 29zm0-43c14.732 0 25 7.378 25 14s-10.268 14-25 14c-14.733 0-25-7.378-25-14s10.267-14 25-14z"/><path d="m255.221 213.896c-2.999-2.157-7.013-2.376-10.228-.56-3.212 1.815-5.095 5.364-4.795 9.041 1.207 14.85 7.911 28.622 18.876 38.78 11.028 10.217 25.385 15.843 40.426 15.843h1c15.041 0 29.398-5.626 40.427-15.842 10.965-10.158 17.669-23.931 18.876-38.779.299-3.678-1.583-7.227-4.795-9.042-3.214-1.817-7.228-1.599-10.228.558 0 0-.001.001-.002.001-30.131 21.677-59.424 21.676-89.557 0zm45.279 48.104h-1c-18.69 0-35.053-11.835-41.534-28.554 27.941 15.725 56.126 15.725 84.069 0-6.481 16.718-22.845 28.554-41.535 28.554z"/><path d="m392.556 117.651c-23.594-10.526-47.518-10.526-71.111 0-3.783 1.688-5.481 6.122-3.794 9.905 1.688 3.783 6.125 5.479 9.905 3.793 19.813-8.839 39.076-8.839 58.889 0 .993.443 2.03.653 3.052.653 2.869 0 5.608-1.656 6.854-4.446 1.686-3.783-.012-8.218-3.795-9.905z"/><path d="m213.556 131.349c19.813-8.839 39.076-8.839 58.889 0 .992.443 2.03.653 3.052.653 2.869 0 5.608-1.656 6.854-4.446 1.688-3.783-.011-8.217-3.794-9.905-23.594-10.526-47.519-10.526-71.111 0-3.783 1.688-5.481 6.122-3.793 9.905 1.685 3.783 6.119 5.481 9.903 3.793z"/><path d="m439.5 60h-12.5v-2.49c0-3.344-1.304-6.486-3.67-8.848-2.36-2.356-5.495-3.652-8.829-3.652-.009 0-.018 0-.025 0l-15.792.031c-20.615.052-39.447-12.081-47.942-30.879l-1.749-3.869c-2.826-6.252-9.086-10.293-15.947-10.293h-14.296c-4.143 0-7.5 3.358-7.5 7.5s3.357 7.5 7.5 7.5h14.296c.98 0 1.874.577 2.278 1.471l1.749 3.869c10.905 24.13 35.037 39.701 61.51 39.701h.13l13.287-.026v138.985c0 21.095-5.953 43.639-16.517 64.034-4.166-1.341-8.509-2.034-12.983-2.034-11.354 0-22.027 4.42-30.054 12.447s-12.446 18.699-12.446 30.053c0 5.458 1.068 10.844 3.089 15.869-13.711 7.621-28.308 11.631-43.089 11.631-14.782 0-29.382-4.011-43.094-11.633 2.021-5.024 3.094-10.403 3.094-15.867 0-11.354-4.42-22.027-12.447-30.053s-18.699-12.447-30.053-12.447c-4.41 0-8.801.705-12.979 2.041-10.566-20.397-16.521-42.944-16.521-64.041v-138.987l13.403.023h.119c26.726-.001 50.958-15.788 61.752-40.246l1.456-3.299c.399-.905 1.298-1.491 2.288-1.491h16.732c4.143 0 7.5-3.358 7.5-7.5s-3.357-7.5-7.5-7.5h-16.732c-6.929 0-13.213 4.096-16.011 10.435l-1.456 3.299c-8.396 19.024-27.241 31.302-48.03 31.302-.03 0-.062 0-.092 0l-15.907-.027c-.008 0-.015 0-.023 0-3.334 0-6.47 1.297-8.83 3.653-2.366 2.362-3.669 5.503-3.669 8.847v53.491h-23.983c-6.929 0-13.213 4.096-16.01 10.434l-1.457 3.3c-8.409 19.052-27.313 31.313-48.122 31.302l-15.907-.027c-.008 0-.015 0-.023 0-3.334 0-6.47 1.297-8.83 3.653-2.366 2.362-3.669 5.503-3.669 8.847v97.991c0 4.142 3.358 7.5 7.5 7.5s7.5-3.358 7.5-7.5v-95.487l13.403.023h.119c26.726-.001 50.958-15.788 61.752-40.245l1.457-3.301c.399-.905 1.297-1.49 2.287-1.49h23.983v73c0 33.855 13.712 70.95 36.679 99.228 22.22 27.358 50.006 43.789 79.216 47.127-13.873 48.668-56.103 96.645-106.895 96.645-28.618 0-56.56-14.997-78.678-42.229-20.865-25.69-33.322-59.249-33.322-89.771v-8.5c0-4.142-3.358-7.5-7.5-7.5s-7.5 3.358-7.5 7.5v8.5c0 33.855 13.712 70.95 36.679 99.228 25.021 30.806 57.098 47.772 90.321 47.772 28.13 0 56.368-12.709 79.512-35.787 20.409-20.351 35.479-46.96 42.768-75.318 6.646-.292 13.235-1.258 19.721-2.88v80.276c-2.347-.833-4.871-1.29-7.5-1.29-12.406 0-22.5 10.093-22.5 22.5v45c0 12.407 10.094 22.5 22.5 22.5s22.5-10.093 22.5-22.5v-151.477c18.793-7.847 36.325-21.333 51.321-39.796 22.966-28.278 36.678-65.373 36.678-99.228v-79h15v192.29c-2.347-.833-4.871-1.29-7.5-1.29-12.406 0-22.5 10.093-22.5 22.5v45c0 12.407 10.094 22.5 22.5 22.5s22.5-10.093 22.5-22.5v-301c0-9.649-7.851-17.5-17.5-17.5zm-115.5 429.5c0 4.136-3.364 7.5-7.5 7.5s-7.5-3.364-7.5-7.5v-45c0-4.136 3.364-7.5 7.5-7.5s7.5 3.364 7.5 7.5zm-102.678-200.729c-3.189-3.926-6.178-8.037-8.96-12.292 1.675-.315 3.389-.479 5.137-.479 7.347 0 14.253 2.86 19.447 8.053s8.054 12.1 8.054 19.447c0 2.519-.345 5.012-1.016 7.413-8.031-6.091-15.64-13.497-22.662-22.142zm157.356 0c-7.02 8.643-14.628 16.049-22.657 22.138-.671-2.401-1.021-4.894-1.021-7.409 0-7.347 2.86-14.253 8.054-19.447 5.192-5.193 12.1-8.053 19.446-8.053 1.746 0 3.459.168 5.135.483-2.781 4.253-5.77 8.363-8.957 12.288zm48.322-183.771v-30h12.5c1.379 0 2.5 1.122 2.5 2.5v27.5zm15 273.5c0 4.136-3.364 7.5-7.5 7.5s-7.5-3.364-7.5-7.5v-45c0-4.136 3.364-7.5 7.5-7.5s7.5 3.364 7.5 7.5z"/></g></g></svg>