<svg height="512" viewBox="0 0 60 54" width="512" xmlns="http://www.w3.org/2000/svg"><g id="Page-1" fill="none" fill-rule="evenodd"><g id="026---Gondola" fill-rule="nonzero"><path id="Shape" d="m44 31h-21.1l2.69-8.95c.3795745-1.2685296 1.5458999-2.1381939 2.87-2.14h15.54z" fill="#e64c3c"/><path id="Shape" d="m50 19.58v10.84c-1.6410116.372273-3.3173443.5667276-5 .58h-3v-9.9c.3799609-.1174571.7380577-.2965055 1.06-.53.4720055.588368 1.1857017.9305008 1.94.93.337024.002245.6708069-.0658739.98-.2z" fill="#2980ba"/><path id="Shape" d="m47 26v4.98c0 .5522847-.4477153 1-1 1s-1-.4477153-1-1v-7.98z" fill="#285680"/><g fill="#c03a2b"><path id="Shape" d="m34 32c-.5522847 0-1-.4477153-1-1v-5c0-.5522847.4477153-1 1-1s1 .4477153 1 1v5c0 .5522847-.4477153 1-1 1z"/><path id="Shape" d="m30 32c-.5522847 0-1-.4477153-1-1v-5c0-.5522847.4477153-1 1-1s1 .4477153 1 1v5c0 .5522847-.4477153 1-1 1z"/><path id="Shape" d="m38 32c-.5522847 0-1-.4477153-1-1v-5c0-.5522847.4477153-1 1-1s1 .4477153 1 1v5c0 .5522847-.4477153 1-1 1z"/></g><path id="Shape" d="m6 28h-4c-.55228475 0-1-.4477153-1-1s.44771525-1 1-1h4c.55228475 0 1 .4477153 1 1s-.44771525 1-1 1z" fill="#393f4a"/><path id="Shape" d="m8 32h-5c-.55228475 0-1-.4477153-1-1s.44771525-1 1-1h5c.55228475 0 1 .4477153 1 1s-.44771525 1-1 1z" fill="#393f4a"/><path id="Shape" d="m47.76 38h-28.76s-15 0-15-15h-2c-.55228475 0-1-.4477153-1-1v-1c0-2.209139 1.790861-4 4-4h2c.46920433-.0021104.87677875.3222855.98.78.54 2.44.42 9.86 12.03 10.21.5445018.0054183.9845817.4454982.99.99v.96c-.0016078.2816193.1095541.5521696.3086923.7513077.1991381.1991382.4696884.3103001.7513077.3086923h22.94c1.6826557-.0132724 3.3589884-.207727 5-.58 3.16-.72 6.65-2.29 8-5.54.0828784-.2108557.297177-.3396338.5222632-.3138426.2250862.0257911.4047013.1997051.4377368.4238426.4087546 3.2459276-.5760303 6.5131542-2.7104666 8.9925306-2.1344364 2.4793765-5.2189106 3.9390305-8.4895334 4.0174694z" fill="#464f5d"/><path id="Shape" d="m59 39h-58c-.55228475 0-1-.4477153-1-1s.44771525-1 1-1h58c.5522847 0 1 .4477153 1 1s-.4477153 1-1 1z" fill="#84b5cb"/><path id="Shape" d="m9 44h-5c-.55228475 0-1-.4477153-1-1s.44771525-1 1-1h5c.55228475 0 1 .4477153 1 1s-.44771525 1-1 1z" fill="#3b97d3"/><path id="Shape" d="m56 44h-5c-.5522847 0-1-.4477153-1-1s.4477153-1 1-1h5c.5522847 0 1 .4477153 1 1s-.4477153 1-1 1z" fill="#3b97d3"/><path id="Shape" d="m47 44h-34c-.5522847 0-1-.4477153-1-1s.4477153-1 1-1h34c.5522847 0 1 .4477153 1 1s-.4477153 1-1 1z" fill="#3b97d3"/><path id="Shape" d="m19 49h-10c-.55228475 0-1-.4477153-1-1s.44771525-1 1-1h10c.5522847 0 1 .4477153 1 1s-.4477153 1-1 1z" fill="#84b5cb"/><path id="Shape" d="m51 49h-5c-.5522847 0-1-.4477153-1-1s.4477153-1 1-1h5c.5522847 0 1 .4477153 1 1s-.4477153 1-1 1z" fill="#84b5cb"/><path id="Shape" d="m42 49h-19c-.5522847 0-1-.4477153-1-1s.4477153-1 1-1h19c.5522847 0 1 .4477153 1 1s-.4477153 1-1 1z" fill="#84b5cb"/><path id="Shape" d="m21 54h-5c-.5522847 0-1-.4477153-1-1s.4477153-1 1-1h5c.5522847 0 1 .4477153 1 1s-.4477153 1-1 1z" fill="#3b97d3"/><path id="Shape" d="m44 54h-19c-.5522847 0-1-.4477153-1-1s.4477153-1 1-1h19c.5522847 0 1 .4477153 1 1s-.4477153 1-1 1z" fill="#3b97d3"/><path id="Shape" d="m50 7c.0029783 1.68345434-1.048396 3.1886012-2.6300411 3.7651652-1.5816451.5765641-3.3550088.1011315-4.436117-1.18930744-1.0811081-1.29043893-1.2385487-3.11966484-.3938419-4.57585776h6.92c.3529906.60747773.5392727 1.29741117.54 2z" fill="#fdd7ad"/><path id="Shape" d="m50 1v4h-8v-4c0-.55228475.4477153-1 1-1h6c.5522847 0 1 .44771525 1 1z" fill="#464f5d"/><path id="Shape" d="m51 6h-10c-.5522847 0-1-.44771525-1-1s.4477153-1 1-1h10c.5522847 0 1 .44771525 1 1s-.4477153 1-1 1z" fill="#393f4a"/><path id="Shape" d="m54.41 16.67c-.20736.7306948-.7325121 1.3292947-1.43 1.63l-2.98 1.28-4.02 1.72c-.3091931.1341261-.642976.202245-.98.2-.7542983.0005008-1.4679945-.341632-1.94-.93-.1521402-.1751578-.2738279-.3745905-.36-.59-.2632012-.6087595-.2668125-1.2985179-.01-1.91l-3.34-5.4c.9503706-1.0602685 2.3061439-1.6672769 3.73-1.67h5.84c1.6138142.0016684 3.1283408.7793983 4.07 2.09l1.04 1.46c.4401804.6130787.5798345 1.3922016.38 2.12z" fill="#3b97d3"/><path id="Shape" d="m48.2 14.84c-.0784463.2935895-.2891685.5338868-.57.65l-4.14 1.77c-.3602482.1597715-.6437601.4540498-.79.82-.012602.0352153-.0293889.0687892-.05.1-.01.01-.01.03-.02.04-.196813.5748903-.171849 1.2025565.07 1.76.0861721.2154095.2078598.4148422.36.59-.3219423.2334945-.6800391.4125429-1.06.53-.3185316.0895958-.6519678.1134126-.98.07-.6885564-.0973441-1.3068498-.4733822-1.71-1.04-.0470129-.0710958-.0904016-.1445228-.13-.22-.4099299-.7048346-.7323128-1.4570614-.96-2.24-.2791211-.8162415-.3512784-1.689001-.21-2.54.2572128-.9478716.6694434-1.8466695 1.22-2.66l.12.2 2.2 3.56c.3241265-.3455505.7154713-.6211934 1.15-.81l3.07-1.31c-.1126911-.4667849.122317-.9477707.5598048-1.14574.4374878-.1979694.9539282-.0570245 1.2301952.33574l.49.69c.1768247.2457101.2320419.5586075.15.85z" fill="#2980ba"/><path id="Shape" d="m55 39c-.3472029.0003116-.6697186-.1794947-.852-.475l-21-34c-.2065339-.30409739-.229573-.69699296-.0599964-1.02314516.1695767-.32615221.5044256-.53297069.8719852-.53857908.3675596-.0056084.7085627.19089762.8880112.51172424l21 34c.1900088.3080283.198755.6946834.0228687 1.0109883-.1758862.3163049-.5089523.51289-.8708687.5140117z" fill="#7f6e5d"/><path id="Shape" d="m50 19.58-4.02 1.72c-.3091931.1341261-.642976.202245-.98.2-.7542983.0005008-1.4679945-.341632-1.94-.93-.1521402-.1751578-.2738279-.3745905-.36-.59-.4025742-.9434569-.1192712-2.0397166.69-2.67z" fill="#3b97d3"/></g></g></svg>