<svg id="Layer_5" enable-background="new 0 0 64 64" height="512" viewBox="0 0 64 64" width="512" xmlns="http://www.w3.org/2000/svg"><g><g><g><path d="m6 12v36l-4 3v-39z" fill="#b4dd7f"/></g><g><path d="m14 12v39l-4-3v-36z" fill="#b4dd7f"/></g><g><path d="m10 12v36l-2 3-2-3v-36z" fill="#fcd770"/></g><g><path d="m14 8v4h-4-4-4v-4c0-1.66.67-3.16 1.76-4.24 1.08-1.09 2.58-1.76 4.24-1.76 3.31 0 6 2.69 6 6z" fill="#cf9e76"/></g><g><path d="m14 51-4.59 10.09c-.25.55-.8.91-1.41.91s-1.16-.36-1.41-.91l-4.59-10.09 4-3 2 3 2-3z" fill="#cf9e76"/></g><g><path d="m36 26h-4c-2.21 0-4-1.79-4-4v-16c0-2.21 1.79-4 4-4h20v7l3-2 3 2v-7c2.21 0 4 1.79 4 4v16c0 2.21-1.79 4-4 4h-14l-5.61 3.74c-.26.17-.55.26-.85.26-.85 0-1.54-.69-1.54-1.54z" fill="#e6e9ed"/></g><g><path d="m58 2v7l-3-2-3 2v-7z" fill="#ff826e"/></g><g><path d="m50 34h-26c-2.21 0-4 1.79-4 4v16c0 2.21 1.79 4 4 4h4v2.46c0 .85.69 1.54 1.54 1.54.3 0 .59-.09.85-.26l5.61-3.74h14c2.21 0 4-1.79 4-4v-16c0-2.21-1.79-4-4-4z" fill="#ffeaa7"/></g></g><g><path d="m8 1c-3.859 0-7 3.141-7 7v43.217l4.676 10.286c.413.909 1.325 1.497 2.324 1.497s1.911-.588 2.324-1.496l4.676-10.287v-43.217c0-3.859-3.141-7-7-7zm5 48-2-1.5v-34.5h2zm-4-1.303-1 1.501-1-1.501v-34.697h2zm-4-.197-2 1.5v-36h2zm3.504 13.177c-.18.393-.828.394-1.008-.001l-4.253-9.358 2.511-1.883 2.246 3.368 2.246-3.368 2.511 1.883zm4.496-49.677h-10v-3c0-2.757 2.243-5 5-5s5 2.243 5 5z"/><path d="m50 33h-26c-2.757 0-5 2.243-5 5v16c0 2.757 2.243 5 5 5h3v1.465c0 1.397 1.138 2.535 2.535 2.535.502 0 .988-.147 1.406-.426l5.362-3.574h13.697c2.757 0 5-2.243 5-5v-16c0-2.757-2.243-5-5-5zm3 21c0 1.654-1.346 3-3 3h-14.303l-5.865 3.91c-.332.221-.832-.044-.832-.445v-3.465h-5c-1.654 0-3-1.346-3-3v-16c0-1.654 1.346-3 3-3h26c1.654 0 3 1.346 3 3z"/><path d="m58 1h-26c-2.757 0-5 2.243-5 5v16c0 2.757 2.243 5 5 5h3v1.465c0 1.397 1.138 2.535 2.535 2.535.502 0 .988-.147 1.406-.426l5.362-3.574h13.697c2.757 0 5-2.243 5-5v-16c0-2.757-2.243-5-5-5zm-5 2h4v4.132l-2-1.334-2 1.334zm8 19c0 1.654-1.346 3-3 3h-14.303l-5.865 3.91c-.332.22-.832-.044-.832-.445v-3.465h-5c-1.654 0-3-1.346-3-3v-16c0-1.654 1.346-3 3-3h19v7.868l4-2.666 4 2.666v-7.684c1.161.414 2 1.514 2 2.816z"/><path d="m55.35 20.481c-.078.305-.351.519-.665.519-.378 0-.685-.307-.685-.685v-1.315-4c0-2.206-1.794-4-4-4s-4 1.794-4 4v4c0 2.206 1.794 4 4 4 1.004 0 1.911-.384 2.614-.997.493.603 1.233.997 2.071.997 1.234 0 2.306-.836 2.604-2.034l.681-2.724-1.939-.484zm-5.35.519c-1.103 0-2-.897-2-2v-4c0-1.103.897-2 2-2s2 .897 2 2v4c0 1.103-.897 2-2 2z"/><path d="m36.208 5-4.182 17.771 1.947.459 1.466-6.23h5.121l1.466 6.229 1.947-.459-4.181-17.77zm-.298 10 1.882-8h.416l1.882 8z"/><path d="m23 37h28v2h-28z"/><path d="m49 41h2v2h-2z"/><path d="m45 41h2v2h-2z"/><path d="m23 41h20v2h-20z"/><path d="m23 45h28v2h-28z"/><path d="m23 49h2v2h-2z"/><path d="m27 49h24v2h-24z"/><path d="m23 53h28v2h-28z"/></g></g></svg>